<svg width="50" height="50" viewBox="0 0 70 70" fill="none" xmlns="http://www.w3.org/2000/svg">
<path d="M17.5 35.0007C20.7217 35.0007 23.3333 32.389 23.3333 29.1673C23.3333 25.9457 20.7217 23.334 17.5 23.334C14.2783 23.334 11.6667 25.9457 11.6667 29.1673C11.6667 32.389 14.2783 35.0007 17.5 35.0007Z" stroke="#F1F1F1" stroke-width="2.83333" stroke-linecap="round" stroke-linejoin="round"/>
<path d="M17.5 11.666V23.3327" stroke="#F1F1F1" stroke-width="2.83333" stroke-linecap="round" stroke-linejoin="round"/>
<path d="M17.5 35V58.3333" stroke="#F1F1F1" stroke-width="2.83333" stroke-linecap="round" stroke-linejoin="round"/>
<path d="M35 52.5007C38.2217 52.5007 40.8333 49.889 40.8333 46.6673C40.8333 43.4457 38.2217 40.834 35 40.834C31.7783 40.834 29.1667 43.4457 29.1667 46.6673C29.1667 49.889 31.7783 52.5007 35 52.5007Z" stroke="#F1F1F1" stroke-width="2.83333" stroke-linecap="round" stroke-linejoin="round"/>
<path d="M35 11.666V40.8327" stroke="#F1F1F1" stroke-width="2.83333" stroke-linecap="round" stroke-linejoin="round"/>
<path d="M35 52.5V58.3333" stroke="#F1F1F1" stroke-width="2.83333" stroke-linecap="round" stroke-linejoin="round"/>
<path d="M52.5 26.2507C55.7217 26.2507 58.3333 23.639 58.3333 20.4173C58.3333 17.1957 55.7217 14.584 52.5 14.584C49.2783 14.584 46.6667 17.1957 46.6667 20.4173C46.6667 23.639 49.2783 26.2507 52.5 26.2507Z" stroke="#F1F1F1" stroke-width="2.83333" stroke-linecap="round" stroke-linejoin="round"/>
<path d="M52.5 11.666V14.5827" stroke="#F1F1F1" stroke-width="2.83333" stroke-linecap="round" stroke-linejoin="round"/>
<path d="M52.5 26.25V58.3333" stroke="#F1F1F1" stroke-width="2.83333" stroke-linecap="round" stroke-linejoin="round"/>
</svg>
