<svg width="60" height="60" viewBox="0 0 70 70" fill="none" xmlns="http://www.w3.org/2000/svg">
<path d="M23.3334 14.584H17.5C15.9529 14.584 14.4692 15.1986 13.3752 16.2925C12.2813 17.3865 11.6667 18.8702 11.6667 20.4173V55.4173C11.6667 56.9644 12.2813 58.4481 13.3752 59.5421C14.4692 60.6361 15.9529 61.2507 17.5 61.2507H34.1163" stroke="#F1F1F1" stroke-width="2.75" stroke-linecap="round" stroke-linejoin="round"/>
<path d="M52.5 40.834V52.5007H64.1667" stroke="#F1F1F1" stroke-width="2.75" stroke-linecap="round" stroke-linejoin="round"/>
<path d="M52.5 32.084V20.4173C52.5 18.8702 51.8854 17.3865 50.7914 16.2925C49.6975 15.1986 48.2137 14.584 46.6666 14.584H40.8333" stroke="#F1F1F1" stroke-width="2.75" stroke-linecap="round" stroke-linejoin="round"/>
<path d="M35 8.75H29.1666C25.945 8.75 23.3333 11.3617 23.3333 14.5833C23.3333 17.805 25.945 20.4167 29.1666 20.4167H35C38.2216 20.4167 40.8333 17.805 40.8333 14.5833C40.8333 11.3617 38.2216 8.75 35 8.75Z" stroke="#F1F1F1" stroke-width="2.75" stroke-linecap="round" stroke-linejoin="round"/>
<path d="M52.5 64.1673C58.9433 64.1673 64.1666 58.944 64.1666 52.5007C64.1666 46.0573 58.9433 40.834 52.5 40.834C46.0567 40.834 40.8333 46.0573 40.8333 52.5007C40.8333 58.944 46.0567 64.1673 52.5 64.1673Z" stroke="#F1F1F1" stroke-width="2.75" stroke-linecap="round" stroke-linejoin="round"/>
<path d="M23.3333 32.084H35" stroke="#F1F1F1" stroke-width="2.75" stroke-linecap="round" stroke-linejoin="round"/>
<path d="M23.3333 43.75H32.0833" stroke="#F1F1F1" stroke-width="2.75" stroke-linecap="round" stroke-linejoin="round"/>
</svg>
