<svg width="50" height="50" viewBox="0 0 81 67" fill="none" xmlns="http://www.w3.org/2000/svg">
<path d="M30.375 13.959H23.625C21.761 13.959 20.25 15.2089 20.25 16.7507V50.2507C20.25 51.7924 21.761 53.0423 23.625 53.0423H30.375C32.239 53.0423 33.75 51.7924 33.75 50.2507V16.7507C33.75 15.2089 32.239 13.959 30.375 13.959Z" fill="#A9AAC5" stroke="#A9AAC5" stroke-width="2.75" stroke-linecap="round" stroke-linejoin="round"/>
<path d="M57.375 13.959H50.625C48.761 13.959 47.25 15.2089 47.25 16.7507V50.2507C47.25 51.7924 48.761 53.0423 50.625 53.0423H57.375C59.239 53.0423 60.75 51.7924 60.75 50.2507V16.7507C60.75 15.2089 59.239 13.959 57.375 13.959Z" fill="#A9AAC5" stroke="#A9AAC5" stroke-width="2.75" stroke-linecap="round" stroke-linejoin="round"/>
</svg>