<svg width="50" height="50" viewBox="0 0 70 74" fill="none" xmlns="http://www.w3.org/2000/svg">
<g filter="url(#filter0_d_1063_3532)">
<path d="M23.3334 14.584H17.5001C15.953 14.584 14.4693 15.1986 13.3753 16.2925C12.2813 17.3865 11.6667 18.8702 11.6667 20.4173V55.4173C11.6667 56.9644 12.2813 58.4481 13.3753 59.5421C14.4693 60.6361 15.953 61.2507 17.5001 61.2507H34.1163" stroke="black" stroke-width="2.75" stroke-linecap="round" stroke-linejoin="round"/>
<path d="M52.5 40.834V52.5007H64.1667" stroke="black" stroke-width="2.75" stroke-linecap="round" stroke-linejoin="round"/>
<path d="M52.4999 32.084V20.4173C52.4999 18.8702 51.8853 17.3865 50.7914 16.2925C49.6974 15.1986 48.2137 14.584 46.6666 14.584H40.8333" stroke="black" stroke-width="2.75" stroke-linecap="round" stroke-linejoin="round"/>
<path d="M34.9999 8.75H29.1666C25.9449 8.75 23.3333 11.3617 23.3333 14.5833C23.3333 17.805 25.9449 20.4167 29.1666 20.4167H34.9999C38.2216 20.4167 40.8333 17.805 40.8333 14.5833C40.8333 11.3617 38.2216 8.75 34.9999 8.75Z" stroke="black" stroke-width="2.75" stroke-linecap="round" stroke-linejoin="round"/>
<path d="M52.4999 64.1673C58.9432 64.1673 64.1666 58.944 64.1666 52.5007C64.1666 46.0573 58.9432 40.834 52.4999 40.834C46.0566 40.834 40.8333 46.0573 40.8333 52.5007C40.8333 58.944 46.0566 64.1673 52.4999 64.1673Z" stroke="black" stroke-width="2.75" stroke-linecap="round" stroke-linejoin="round"/>
<path d="M23.3333 32.084H34.9999" stroke="black" stroke-width="2.75" stroke-linecap="round" stroke-linejoin="round"/>
<path d="M23.3333 43.75H32.0833" stroke="black" stroke-width="2.75" stroke-linecap="round" stroke-linejoin="round"/>
</g>
<defs>
<filter id="filter0_d_1063_3532" x="-4" y="0" width="78" height="78" filterUnits="userSpaceOnUse" color-interpolation-filters="sRGB">
<feFlood flood-opacity="0" result="BackgroundImageFix"/>
<feColorMatrix in="SourceAlpha" type="matrix" values="0 0 0 0 0 0 0 0 0 0 0 0 0 0 0 0 0 0 127 0" result="hardAlpha"/>
<feOffset dy="4"/>
<feGaussianBlur stdDeviation="2"/>
<feComposite in2="hardAlpha" operator="out"/>
<feColorMatrix type="matrix" values="0 0 0 0 0 0 0 0 0 0 0 0 0 0 0 0 0 0 0.25 0"/>
<feBlend mode="normal" in2="BackgroundImageFix" result="effect1_dropShadow_1063_3532"/>
<feBlend mode="normal" in="SourceGraphic" in2="effect1_dropShadow_1063_3532" result="shape"/>
</filter>
</defs>
</svg>
