<?xml version="1.0" encoding="UTF-8"?>
<svg width="700pt" height="700pt" version="1.1" viewBox="0 0 700 700" xmlns="http://www.w3.org/2000/svg" xmlns:xlink="http://www.w3.org/1999/xlink">
 <defs>
  <symbol id="m" overflow="visible">
   <path d="m29.312-1.75c-1.5117 0.78125-3.0898 1.3711-4.7344 1.7656-1.6367 0.40625-3.3398 0.60938-5.1094 0.60938-5.3125 0-9.5273-1.4844-12.641-4.4531-3.1055-2.9688-4.6562-7-4.6562-12.094s1.5508-9.125 4.6562-12.094c3.1133-2.9688 7.3281-4.4531 12.641-4.4531 1.7695 0 3.4727 0.19922 5.1094 0.59375 1.6445 0.39844 3.2227 0.99219 4.7344 1.7812v6.5938c-1.5312-1.0391-3.0391-1.8008-4.5156-2.2812-1.4805-0.48828-3.0391-0.73438-4.6719-0.73438-2.9375 0-5.2461 0.94531-6.9219 2.8281-1.6797 1.875-2.5156 4.4648-2.5156 7.7656 0 3.293 0.83594 5.8828 2.5156 7.7656 1.6758 1.875 3.9844 2.8125 6.9219 2.8125 1.6328 0 3.1914-0.23828 4.6719-0.71875 1.4766-0.48828 2.9844-1.2539 4.5156-2.2969z"/>
  </symbol>
  <symbol id="h" overflow="visible">
   <path d="m21.453-17.406c-0.67969-0.3125-1.3516-0.53906-2.0156-0.6875-0.65625-0.15625-1.3203-0.23438-1.9844-0.23438-1.9688 0-3.4844 0.63281-4.5469 1.8906-1.0547 1.2617-1.5781 3.0703-1.5781 5.4219v11.016h-7.6562v-23.922h7.6562v3.9219c0.97656-1.5625 2.1016-2.7031 3.375-3.4219 1.2812-0.71875 2.8125-1.0781 4.5938-1.0781 0.25 0 0.52344 0.011719 0.82812 0.03125 0.30078 0.023438 0.73438 0.070312 1.2969 0.14062z"/>
  </symbol>
  <symbol id="c" overflow="visible">
   <path d="m27.562-12.031v2.1875h-17.891c0.1875 1.793 0.83203 3.1367 1.9375 4.0312 1.1133 0.89844 2.6719 1.3438 4.6719 1.3438 1.6016 0 3.25-0.23438 4.9375-0.70312 1.6875-0.47656 3.4219-1.2031 5.2031-2.1719v5.8906c-1.8047 0.6875-3.6094 1.2031-5.4219 1.5469-1.8125 0.35156-3.6211 0.53125-5.4219 0.53125-4.3359 0-7.7031-1.0977-10.109-3.2969-2.3984-2.207-3.5938-5.2969-3.5938-9.2656 0-3.9062 1.1758-6.9727 3.5312-9.2031 2.3633-2.2383 5.6094-3.3594 9.7344-3.3594 3.7578 0 6.7695 1.1367 9.0312 3.4062 2.2578 2.2617 3.3906 5.2812 3.3906 9.0625zm-7.8594-2.5312c0-1.457-0.42969-2.6289-1.2812-3.5156-0.84375-0.89453-1.9492-1.3438-3.3125-1.3438-1.4922 0-2.6992 0.41797-3.625 1.25-0.91797 0.83594-1.4922 2.0391-1.7188 3.6094z"/>
  </symbol>
  <symbol id="b" overflow="visible">
   <path d="m14.391-10.766c-1.5938 0-2.793 0.27344-3.5938 0.8125-0.80469 0.54297-1.2031 1.3398-1.2031 2.3906 0 0.96875 0.32031 1.7305 0.96875 2.2812 0.64453 0.54297 1.5469 0.8125 2.7031 0.8125 1.4375 0 2.6445-0.51562 3.625-1.5469 0.98828-1.0312 1.4844-2.3203 1.4844-3.875v-0.875zm11.688-2.8906v13.656h-7.7031v-3.5469c-1.0312 1.4492-2.1875 2.5078-3.4688 3.1719s-2.8398 1-4.6719 1c-2.4805 0-4.4961-0.72266-6.0469-2.1719-1.543-1.4453-2.3125-3.3203-2.3125-5.625 0-2.8125 0.96094-4.8672 2.8906-6.1719 1.9375-1.3125 4.9688-1.9688 9.0938-1.9688h4.5156v-0.60938c0-1.207-0.48047-2.0938-1.4375-2.6562-0.94922-0.5625-2.4375-0.84375-4.4688-0.84375-1.6367 0-3.1562 0.16797-4.5625 0.5-1.4062 0.32422-2.7188 0.8125-3.9375 1.4688v-5.8281c1.6445-0.40625 3.2891-0.70703 4.9375-0.90625 1.6562-0.20703 3.3047-0.3125 4.9531-0.3125 4.3203 0 7.4375 0.85547 9.3438 2.5625 1.9141 1.6992 2.875 4.4609 2.875 8.2812z"/>
  </symbol>
  <symbol id="g" overflow="visible">
   <path d="m12.031-30.719v6.7969h7.875v5.4688h-7.875v10.141c0 1.1172 0.21875 1.8711 0.65625 2.2656 0.4375 0.38672 1.3125 0.57812 2.625 0.57812h3.9375v5.4688h-6.5625c-3.0234 0-5.1641-0.62891-6.4219-1.8906-1.2617-1.2578-1.8906-3.3984-1.8906-6.4219v-10.141h-3.7969v-5.4688h3.7969v-6.7969z"/>
  </symbol>
  <symbol id="f" overflow="visible">
   <path d="m19.953-20.422v-12.812h7.6875v33.234h-7.6875v-3.4531c-1.0547 1.4062-2.2148 2.4375-3.4844 3.0938-1.2734 0.65625-2.7422 0.98438-4.4062 0.98438-2.9492 0-5.3711-1.1719-7.2656-3.5156-1.8867-2.3438-2.8281-5.3594-2.8281-9.0469s0.94141-6.7031 2.8281-9.0469c1.8945-2.3438 4.3164-3.5156 7.2656-3.5156 1.6562 0 3.1172 0.33594 4.3906 1 1.2812 0.65625 2.4453 1.6836 3.5 3.0781zm-5.0469 15.484c1.6445 0 2.8945-0.59766 3.75-1.7969 0.86328-1.1953 1.2969-2.9297 1.2969-5.2031 0-2.2812-0.43359-4.0195-1.2969-5.2188-0.85547-1.1953-2.1055-1.7969-3.75-1.7969-1.625 0-2.8711 0.60156-3.7344 1.7969-0.85547 1.1992-1.2812 2.9375-1.2812 5.2188 0 2.2734 0.42578 4.0078 1.2812 5.2031 0.86328 1.1992 2.1094 1.7969 3.7344 1.7969z"/>
  </symbol>
  <symbol id="e" overflow="visible">
   <path d="m16.406-4.9375c1.6328 0 2.8828-0.59766 3.75-1.7969 0.86328-1.1953 1.2969-2.9297 1.2969-5.2031 0-2.2812-0.43359-4.0195-1.2969-5.2188-0.86719-1.1953-2.1172-1.7969-3.75-1.7969-1.6367 0-2.8906 0.60547-3.7656 1.8125-0.875 1.1992-1.3125 2.9336-1.3125 5.2031 0 2.2617 0.4375 3.9961 1.3125 5.2031 0.875 1.1992 2.1289 1.7969 3.7656 1.7969zm-5.0781-15.484c1.0508-1.3945 2.2188-2.4219 3.5-3.0781 1.2812-0.66406 2.7539-1 4.4219-1 2.9453 0 5.3672 1.1719 7.2656 3.5156 1.8945 2.3438 2.8438 5.3594 2.8438 9.0469s-0.94922 6.7031-2.8438 9.0469c-1.8984 2.3438-4.3203 3.5156-7.2656 3.5156-1.668 0-3.1406-0.33594-4.4219-1s-2.4492-1.6914-3.5-3.0781v3.4531h-7.6562v-33.234h7.6562z"/>
  </symbol>
  <symbol id="a" overflow="visible">
   <path d="m0.53125-23.922h7.6562l6.4219 16.234 5.4688-16.234h7.6562l-10.062 26.188c-1.0117 2.6641-2.1953 4.5234-3.5469 5.5781-1.3438 1.0625-3.1211 1.5938-5.3281 1.5938h-4.4219v-5.0156h2.3906c1.3008 0 2.2422-0.21094 2.8281-0.625 0.59375-0.40625 1.0547-1.1484 1.3906-2.2188l0.20312-0.65625z"/>
  </symbol>
  <symbol id="d" overflow="visible">
   <path d="m12.234-25.672v19.453h2.9531c3.3633 0 5.9297-0.83203 7.7031-2.5 1.7695-1.6641 2.6562-4.0859 2.6562-7.2656 0-3.1562-0.88672-5.5547-2.6562-7.2031-1.7617-1.6562-4.3281-2.4844-7.7031-2.4844zm-8.2188-6.2188h8.6719c4.8438 0 8.4453 0.34375 10.812 1.0312 2.375 0.6875 4.4102 1.8594 6.1094 3.5156 1.4883 1.4375 2.5977 3.1016 3.3281 4.9844 0.72656 1.875 1.0938 4 1.0938 6.375 0 2.4062-0.36719 4.5586-1.0938 6.4531-0.73047 1.8867-1.8398 3.5469-3.3281 4.9844-1.7109 1.6484-3.7617 2.8203-6.1562 3.5156-2.3984 0.6875-5.9844 1.0312-10.766 1.0312h-8.6719z"/>
  </symbol>
  <symbol id="l" overflow="visible">
   <path d="m3.6719-23.922h7.6562v23.922h-7.6562zm0-9.3125h7.6562v6.2344h-7.6562z"/>
  </symbol>
  <symbol id="k" overflow="visible">
   <path d="m3.6719-33.234h7.6562v33.234h-7.6562z"/>
  </symbol>
  <symbol id="j" overflow="visible">
   <path d="m4.0156-31.891h13.656c4.0508 0 7.1602 0.90234 9.3281 2.7031 2.1758 1.8047 3.2656 4.3711 3.2656 7.7031 0 3.3438-1.0898 5.918-3.2656 7.7188-2.168 1.8047-5.2773 2.7031-9.3281 2.7031h-5.4375v11.062h-8.2188zm8.2188 5.9531v8.9062h4.5625c1.5938 0 2.8203-0.38281 3.6875-1.1562 0.875-0.78125 1.3125-1.8789 1.3125-3.2969 0-1.4258-0.4375-2.5234-1.3125-3.2969-0.86719-0.76953-2.0938-1.1562-3.6875-1.1562z"/>
  </symbol>
  <symbol id="i" overflow="visible">
   <path d="m4.0156-31.891h10.469l7.2656 17.062 7.2969-17.062h10.453v31.891h-7.7812v-23.328l-7.3438 17.203h-5.2188l-7.3438-17.203v23.328h-7.7969z"/>
  </symbol>
 </defs>
 <g>
  <path d="m163.89 474.43c-12.223-0.023437-23.93-4.9062-32.547-13.574-8.6172-8.668-13.434-20.406-13.387-32.629 0.046875-12.219 4.9492-23.922 13.633-32.523 8.6836-8.5977 20.434-13.395 32.652-13.324 12.223 0.070312 23.914 5 32.5 13.699 8.582 8.6992 13.355 20.453 13.262 32.676-0.11719 12.152-5.0234 23.77-13.66 32.324-8.6367 8.5547-20.297 13.352-32.453 13.352zm0-74.461v-0.003906c-7.543 0.023437-14.773 3.0352-20.102 8.3789-5.3281 5.3398-8.3281 12.574-8.332 20.117-0.007813 7.5469 2.9727 14.789 8.293 20.141 5.3164 5.3516 12.539 8.375 20.086 8.4141 7.543 0.039062 14.797-2.9141 20.168-8.2109 5.375-5.2969 8.4297-12.508 8.5-20.051 0.070312-7.625-2.918-14.961-8.293-20.371s-12.695-8.4414-20.32-8.418z"/>
  <path d="m131.07 448.84 53.211-53.211 12.375 12.375-53.211 53.211z"/>
  <path d="m122.5 490h82.688v17.5h-82.688z"/>
  <path d="m246.57 490h82.773v17.5h-82.773z"/>
  <path d="m370.65 490h82.773v17.5h-82.773z"/>
  <path d="m603.75 17.5h-507.5c-4.832 0-8.75 3.918-8.75 8.75v507.5c0 2.3203 0.92188 4.5469 2.5625 6.1875s3.8672 2.5625 6.1875 2.5625h507.5c2.3203 0 4.5469-0.92188 6.1875-2.5625s2.5625-3.8672 2.5625-6.1875v-507.5c0-2.3203-0.92188-4.5469-2.5625-6.1875s-3.8672-2.5625-6.1875-2.5625zm-31.676 17.5-467.07 165.73v-165.73zm22.926 10.414v155.84h-439.16zm-490 479.59v-306.25h490v306.25z"/>
  <path d="m245 354.81v-109.81c0-2.3203-0.92188-4.5469-2.5625-6.1875s-3.8672-2.5625-6.1875-2.5625h-105c-4.832 0-8.75 3.918-8.75 8.75v109.81c0 2.3203 0.92188 4.5469 2.5625 6.1875s3.8672 2.5625 6.1875 2.5625h105c2.3203 0 4.5469-0.92188 6.1875-2.5625s2.5625-3.8672 2.5625-6.1875zm-29.227-101.06-75.773 79.188v-79.188zm-64.047 92.312 75.773-79.273v79.273z"/>
  <path d="m262.5 236.25h315v17.5h-315z"/>
  <path d="m262.5 271.25h315v17.5h-315z"/>
  <path d="m262.5 306.25h315v17.5h-315z"/>
  <path d="m262.5 341.25h201.25v17.5h-201.25z"/>
  <path d="m287.96 382.46c-12.195-0.019532-23.902 4.7969-32.547 13.398-8.6484 8.6055-13.523 20.285-13.562 32.484-0.039062 12.195 4.7656 23.906 13.355 32.566 8.5938 8.6562 20.27 13.547 32.465 13.602 12.195 0.054687 23.914-4.7344 32.582-13.316 8.668-8.5781 13.578-20.25 13.645-32.445 0.070312-12.238-4.7344-23.996-13.355-32.684-8.6211-8.6836-20.344-13.582-32.582-13.605zm0 17.5c4.4883 0.023437 8.9023 1.1367 12.863 3.2383l-38.324 38.152c-1.9531-3.918-3-8.2266-3.0625-12.602-0.070312-7.6094 2.9062-14.934 8.2617-20.34s12.652-8.4492 20.262-8.4492zm0 56.961v0.003906c-4.4844-0.023437-8.8984-1.1367-12.859-3.2383l38.148-38.148c2.0781 4.0938 3.1602 8.6211 3.1484 13.211-0.089844 7.4883-3.125 14.641-8.4453 19.914-5.3203 5.2695-12.5 8.2383-19.992 8.2617z"/>
  <path d="m412.04 382.46c-12.191 0-23.887 4.8398-32.516 13.453-8.6289 8.6094-13.488 20.297-13.512 32.488-0.019531 12.191 4.793 23.891 13.391 32.535 8.5938 8.6484 20.27 13.527 32.461 13.574 12.191 0.046875 23.902-4.7461 32.566-13.324 8.6602-8.582 13.562-20.246 13.633-32.438 0.070312-12.254-4.75-24.027-13.387-32.715-8.6406-8.6875-20.387-13.574-32.637-13.574zm0 17.5c4.4844 0.023437 8.8984 1.1367 12.859 3.2383l-38.148 38.152c-1.9844-3.9102-3.0625-8.2188-3.1484-12.602-0.070312-7.5938 2.8906-14.906 8.2305-20.309 5.3359-5.4062 12.609-8.457 20.207-8.4805zm0 56.961v0.003906c-4.4883-0.023437-8.9023-1.1367-12.863-3.2383l38.324-38.148c2.0469 4.1016 3.0938 8.6289 3.0625 13.211-0.09375 7.5039-3.1367 14.672-8.4766 19.945-5.3398 5.2734-12.543 8.2305-20.047 8.2305z"/>
  <path d="m536.11 382.46c-12.191 0-23.887 4.8398-32.516 13.453-8.6289 8.6094-13.484 20.297-13.508 32.488-0.023438 12.191 4.7891 23.891 13.387 32.535 8.5977 8.6484 20.27 13.527 32.461 13.574s23.902-4.7461 32.566-13.324c8.6602-8.582 13.562-20.246 13.633-32.438 0.070312-12.254-4.7461-24.027-13.387-32.715s-20.387-13.574-32.637-13.574zm0 17.5c4.4844 0.023437 8.8984 1.1367 12.863 3.2383l-38.062 38.148v0.003906c-2.1133-3.875-3.2812-8.1914-3.4141-12.602-0.070312-7.625 2.918-14.961 8.293-20.371s12.695-8.4414 20.32-8.418zm0 56.961v0.003906c-4.4883-0.023437-8.9023-1.1367-12.863-3.2383l38.148-38.148c2.1523 4.0703 3.2617 8.6094 3.2383 13.211-0.089844 7.5039-3.1367 14.672-8.4766 19.945-5.3398 5.2734-12.543 8.2305-20.047 8.2305z"/>
  <path d="m494.81 490h82.688v17.5h-82.688z"/>
  <use x="70" y="691.25" xlink:href="#m"/>
  <use x="102.109375" y="691.25" xlink:href="#h"/>
  <use x="123.683594" y="691.25" xlink:href="#c"/>
  <use x="153.355469" y="691.25" xlink:href="#b"/>
  <use x="182.878906" y="691.25" xlink:href="#g"/>
  <use x="203.792969" y="691.25" xlink:href="#c"/>
  <use x="233.464844" y="691.25" xlink:href="#f"/>
  <use x="280.011719" y="691.25" xlink:href="#e"/>
  <use x="311.328125" y="691.25" xlink:href="#a"/>
  <use x="355.078125" y="691.25" xlink:href="#d"/>
  <use x="391.394531" y="691.25" xlink:href="#b"/>
  <use x="420.917969" y="691.25" xlink:href="#l"/>
  <use x="435.914062" y="691.25" xlink:href="#k"/>
  <use x="450.910156" y="691.25" xlink:href="#a"/>
  <use x="479.429688" y="691.25" xlink:href="#j"/>
  <use x="511.496094" y="691.25" xlink:href="#i"/>
 </g>
</svg>
