<svg width="81" height="67" viewBox="0 0 81 67" fill="none" xmlns="http://www.w3.org/2000/svg">
<path d="M67.5 30.7089C66.6746 25.7962 63.9194 21.2442 59.6586 17.7542C55.3979 14.2642 49.8682 12.0297 43.9211 11.3949C37.9741 10.7602 31.9397 11.7604 26.7476 14.2416C21.5554 16.7227 17.4935 20.5471 15.1875 25.1256M13.5 13.9589V25.1256H27" stroke="white" stroke-width="6.66667" stroke-linecap="round" stroke-linejoin="round"/>
<path d="M13.5 36.291C14.3254 41.2037 17.0806 45.7557 21.3413 49.2458C25.602 52.7358 31.1318 54.9703 37.0789 55.605C43.0259 56.2397 49.0603 55.2395 54.2524 52.7584C59.4446 50.2772 63.5065 46.4529 65.8125 41.8743M67.5 53.041V41.8743H54" stroke="white" stroke-width="6.66667" stroke-linecap="round" stroke-linejoin="round"/>
</svg>
