<svg width="50" height="50" viewBox="0 0 69 70" fill="none" xmlns="http://www.w3.org/2000/svg">
<g filter="url(#filter0_d_1063_3517)">
<path d="M17.5001 35.0007C20.7217 35.0007 23.3334 32.389 23.3334 29.1673C23.3334 25.9457 20.7217 23.334 17.5001 23.334C14.2784 23.334 11.6667 25.9457 11.6667 29.1673C11.6667 32.389 14.2784 35.0007 17.5001 35.0007Z" stroke="black" stroke-width="2.83333" stroke-linecap="round" stroke-linejoin="round"/>
<path d="M17.5 11.666V23.3327" stroke="black" stroke-width="2.83333" stroke-linecap="round" stroke-linejoin="round"/>
<path d="M17.5 35V58.3333" stroke="black" stroke-width="2.83333" stroke-linecap="round" stroke-linejoin="round"/>
<path d="M35.0001 52.5007C38.2217 52.5007 40.8334 49.889 40.8334 46.6673C40.8334 43.4457 38.2217 40.834 35.0001 40.834C31.7784 40.834 29.1667 43.4457 29.1667 46.6673C29.1667 49.889 31.7784 52.5007 35.0001 52.5007Z" stroke="black" stroke-width="2.83333" stroke-linecap="round" stroke-linejoin="round"/>
<path d="M35 11.666V40.8327" stroke="black" stroke-width="2.83333" stroke-linecap="round" stroke-linejoin="round"/>
<path d="M35 52.5V58.3333" stroke="black" stroke-width="2.83333" stroke-linecap="round" stroke-linejoin="round"/>
<path d="M52.5001 26.2507C55.7217 26.2507 58.3334 23.639 58.3334 20.4173C58.3334 17.1957 55.7217 14.584 52.5001 14.584C49.2784 14.584 46.6667 17.1957 46.6667 20.4173C46.6667 23.639 49.2784 26.2507 52.5001 26.2507Z" stroke="black" stroke-width="2.83333" stroke-linecap="round" stroke-linejoin="round"/>
<path d="M52.5 11.666V14.5827" stroke="black" stroke-width="2.83333" stroke-linecap="round" stroke-linejoin="round"/>
<path d="M52.5 26.25V58.3333" stroke="black" stroke-width="2.83333" stroke-linecap="round" stroke-linejoin="round"/>
</g>
<defs>
<filter id="filter0_d_1063_3517" x="-4" y="0" width="78" height="78" filterUnits="userSpaceOnUse" color-interpolation-filters="sRGB">
<feFlood flood-opacity="0" result="BackgroundImageFix"/>
<feColorMatrix in="SourceAlpha" type="matrix" values="0 0 0 0 0 0 0 0 0 0 0 0 0 0 0 0 0 0 127 0" result="hardAlpha"/>
<feOffset dy="4"/>
<feGaussianBlur stdDeviation="2"/>
<feComposite in2="hardAlpha" operator="out"/>
<feColorMatrix type="matrix" values="0 0 0 0 0 0 0 0 0 0 0 0 0 0 0 0 0 0 0.25 0"/>
<feBlend mode="normal" in2="BackgroundImageFix" result="effect1_dropShadow_1063_3517"/>
<feBlend mode="normal" in="SourceGraphic" in2="effect1_dropShadow_1063_3517" result="shape"/>
</filter>
</defs>
</svg>
